<?xml version="1.0" encoding="UTF-8" standalone="no"?>
<svg
   xmlns:dc="http://purl.org/dc/elements/1.1/"
   xmlns:cc="http://creativecommons.org/ns#"
   xmlns:rdf="http://www.w3.org/1999/02/22-rdf-syntax-ns#"
   xmlns:svg="http://www.w3.org/2000/svg"
   xmlns="http://www.w3.org/2000/svg"
   xmlns:sodipodi="http://sodipodi.sourceforge.net/DTD/sodipodi-0.dtd"
   xmlns:inkscape="http://www.inkscape.org/namespaces/inkscape"
   inkscape:version="1.0 (4035a4fb49, 2020-05-01)"
   sodipodi:docname="addr.svg"
   id="svg8"
   version="1.1"
   viewBox="0 0 94.984848 9.3450537"
   height="9.3450537mm"
   width="94.984848mm">
  <defs
     id="defs2" />
  <sodipodi:namedview
     inkscape:window-maximized="1"
     inkscape:window-y="0"
     inkscape:window-x="0"
     inkscape:window-height="2096"
     inkscape:window-width="3840"
     showgrid="false"
     inkscape:document-rotation="0"
     inkscape:current-layer="layer1"
     inkscape:document-units="mm"
     inkscape:cy="384.16863"
     inkscape:cx="260.11665"
     inkscape:zoom="1.4"
     inkscape:pageshadow="2"
     inkscape:pageopacity="0.0"
     borderopacity="1.0"
     bordercolor="#666666"
     pagecolor="#ffffff"
     id="base" />
  <metadata
     id="metadata5">
    <rdf:RDF>
      <cc:Work
         rdf:about="">
        <dc:format>image/svg+xml</dc:format>
        <dc:type
           rdf:resource="http://purl.org/dc/dcmitype/StillImage" />
        <dc:title></dc:title>
      </cc:Work>
    </rdf:RDF>
  </metadata>
  <g
     transform="translate(-54.625283,-53.097852)"
     id="layer1"
     inkscape:groupmode="layer"
     inkscape:label="Layer 1">
    <g
       style="font-style:normal;font-weight:normal;font-size:10.5833px;line-height:1.25;font-family:sans-serif;fill:#000000;fill-opacity:1;stroke:none;stroke-width:0.264583"
       id="text12">
      <path
         id="path1024"
         style="fill:#666666;fill-opacity:1;stroke-width:0.264583"
         d="m 55.937612,52.727437 v 1.95791 q 0,0.359832 -0.02117,0.677331 -0.01058,0.306916 -0.03175,0.486832 h 0.05292 q 0.243416,-0.359832 0.666748,-0.603248 0.423332,-0.243416 1.090079,-0.243416 1.05833,0 1.693328,0.740831 0.645582,0.730248 0.645582,2.190743 0,1.460495 -0.645582,2.201326 -0.645581,0.740831 -1.693328,0.740831 -0.666747,0 -1.090079,-0.243416 -0.423332,-0.243415 -0.666748,-0.582081 h -0.07408 l -0.1905,0.719664 h -0.666748 v -8.043307 z m 1.598078,3.04799 q -0.89958,0 -1.248829,0.518582 -0.349249,0.518581 -0.349249,1.608661 v 0.04233 q 0,1.047747 0.338665,1.608662 0.349249,0.550331 1.28058,0.550331 0.761997,0 1.132413,-0.560914 0.380998,-0.560915 0.380998,-1.619245 0,-2.14841 -1.534578,-2.14841 z" />
      <path
         id="path1026"
         style="fill:#666666;fill-opacity:1;stroke-width:0.264583"
         d="m 61.991257,52.970852 q 0.211666,0 0.370415,0.148167 0.169333,0.137583 0.169333,0.444498 0,0.296333 -0.169333,0.444499 -0.158749,0.148166 -0.370415,0.148166 -0.232833,0 -0.391582,-0.148166 -0.15875,-0.148166 -0.15875,-0.444499 0,-0.306915 0.15875,-0.444498 0.158749,-0.148167 0.391582,-0.148167 z m 0.455082,2.127244 v 5.672648 h -0.931331 v -5.672648 z" />
      <path
         id="path1028"
         style="fill:#666666;fill-opacity:1;stroke-width:0.264583"
         d="m 65.176824,52.727437 v 1.95791 q 0,0.359832 -0.02117,0.677331 -0.01058,0.306916 -0.03175,0.486832 h 0.05292 q 0.243416,-0.359832 0.666748,-0.603248 0.423332,-0.243416 1.09008,-0.243416 1.058329,0 1.693327,0.740831 0.645582,0.730248 0.645582,2.190743 0,1.460495 -0.645582,2.201326 -0.645581,0.740831 -1.693327,0.740831 -0.666748,0 -1.09008,-0.243416 -0.423332,-0.243415 -0.666748,-0.582081 h -0.07408 l -0.1905,0.719664 h -0.666748 v -8.043307 z m 1.598078,3.04799 q -0.89958,0 -1.248829,0.518582 -0.349249,0.518581 -0.349249,1.608661 v 0.04233 q 0,1.047747 0.338665,1.608662 0.349249,0.550331 1.28058,0.550331 0.761997,0 1.132413,-0.560914 0.380998,-0.560915 0.380998,-1.619245 0,-2.14841 -1.534578,-2.14841 z" />
      <path
         id="path1030"
         style="fill:#666666;fill-opacity:1;stroke-width:0.264583"
         d="m 78.755195,56.992506 q 0,0.486832 -0.116416,0.952497 -0.105833,0.465666 -0.338666,0.846664 -0.232832,0.370416 -0.571498,0.603248 -0.338666,0.22225 -0.804331,0.22225 -0.486832,0 -0.772581,-0.275166 -0.275165,-0.285749 -0.338665,-0.645581 h -0.05292 q -0.190499,0.391582 -0.560915,0.656164 -0.370415,0.264583 -0.93133,0.264583 -0.804331,0 -1.248829,-0.539749 -0.433916,-0.539748 -0.433916,-1.428745 0,-0.698498 0.275166,-1.227663 0.275166,-0.539748 0.772581,-0.846664 0.507998,-0.306915 1.195913,-0.306915 0.465665,0 0.910164,0.08467 0.455081,0.07408 0.709081,0.169333 l -0.105833,2.14841 q -0.01058,0.190499 -0.01058,0.275165 0,0.07408 0,0.105833 0,0.550332 0.1905,0.730248 0.201082,0.179916 0.465665,0.179916 0.328082,0 0.550332,-0.264582 0.232832,-0.275166 0.349248,-0.719665 0.127,-0.455082 0.127,-0.99483 0,-0.984247 -0.402165,-1.661578 -0.391582,-0.687914 -1.09008,-1.047747 -0.687915,-0.359832 -1.566329,-0.359832 -1.206496,0 -2.042576,0.497415 -0.825498,0.497415 -1.259413,1.375829 -0.423332,0.867831 -0.423332,1.989661 0,1.566328 0.825497,2.402409 0.825498,0.83608 2.381243,0.83608 0.645581,0 1.227663,-0.148166 0.592664,-0.137583 1.047746,-0.306916 v 0.719665 q -0.455082,0.190499 -1.02658,0.306915 -0.560915,0.127 -1.248829,0.127 -1.24883,0 -2.137827,-0.465665 -0.888997,-0.465665 -1.365245,-1.333496 -0.465666,-0.878414 -0.465666,-2.106077 0,-0.984246 0.306916,-1.820327 0.306916,-0.846664 0.888997,-1.460495 0.582082,-0.624415 1.407579,-0.963081 0.836081,-0.349249 1.883827,-0.349249 1.100664,0 1.957911,0.455082 0.857247,0.455082 1.344079,1.301746 0.497415,0.846664 0.497415,2.02141 z m -5.344566,0.677332 q 0,0.677331 0.264582,0.984246 0.275166,0.306916 0.730248,0.306916 0.592665,0 0.846664,-0.444498 0.264582,-0.444499 0.306916,-1.15358 l 0.0635,-1.322913 q -0.137583,-0.04233 -0.349249,-0.07408 -0.211666,-0.03175 -0.433915,-0.03175 -0.518582,0 -0.836081,0.254 -0.317499,0.253999 -0.455081,0.656164 -0.137583,0.391582 -0.137583,0.825498 z" />
      <path
         id="path1032"
         style="fill:#666666;fill-opacity:1;stroke-width:0.264583"
         d="m 81.189337,52.727437 v 4.20157 q 0,0.169332 -0.02117,0.444498 -0.01058,0.275166 -0.02117,0.476249 h 0.04233 q 0.0635,-0.08467 0.190499,-0.243416 0.127,-0.15875 0.253999,-0.317499 0.137583,-0.169333 0.232833,-0.275166 l 1.809744,-1.915577 h 1.09008 l -2.296576,2.423575 2.455325,3.249073 h -1.121829 l -1.968494,-2.645825 -0.645581,0.560915 v 2.08491 h -0.920748 v -8.043307 z" />
      <path
         id="path1034"
         style="fill:#666666;fill-opacity:1;stroke-width:0.264583"
         d="m 90.851872,57.923837 q 0,1.407579 -0.719665,2.180159 -0.709081,0.772581 -1.92616,0.772581 -0.751415,0 -1.344079,-0.338665 -0.582082,-0.349249 -0.920747,-1.005414 -0.338666,-0.666748 -0.338666,-1.608661 0,-1.407579 0.709081,-2.169577 0.709081,-0.761997 1.926161,-0.761997 0.77258,0 1.354662,0.349249 0.592665,0.338665 0.920747,0.99483 0.338666,0.645581 0.338666,1.587495 z m -4.286237,0 q 0,1.005413 0.391582,1.598078 0.402166,0.582081 1.269996,0.582081 0.857248,0 1.259413,-0.582081 0.402165,-0.592665 0.402165,-1.598078 0,-1.005414 -0.402165,-1.576912 -0.402165,-0.571498 -1.269996,-0.571498 -0.867831,0 -1.259413,0.571498 -0.391582,0.571498 -0.391582,1.576912 z" />
      <path
         id="path1036"
         style="fill:#666666;fill-opacity:1;stroke-width:0.264583"
         d="m 94.598356,60.876577 q -0.751414,0 -1.344079,-0.306915 -0.582081,-0.306916 -0.920747,-0.952497 -0.328082,-0.645582 -0.328082,-1.650995 0,-1.047747 0.349249,-1.703911 0.349249,-0.656165 0.941914,-0.963081 0.603248,-0.306915 1.365245,-0.306915 0.433916,0 0.836081,0.09525 0.402165,0.08467 0.656164,0.211666 l -0.285749,0.772581 q -0.253999,-0.09525 -0.592664,-0.179916 -0.338666,-0.08467 -0.634998,-0.08467 -1.672162,0 -1.672162,2.14841 0,1.02658 0.402166,1.576911 0.412748,0.539749 1.217079,0.539749 0.465665,0 0.814914,-0.09525 0.359832,-0.09525 0.656165,-0.232833 v 0.825498 q -0.285749,0.148166 -0.634998,0.222249 -0.338666,0.08467 -0.825498,0.08467 z" />
      <path
         id="path1038"
         style="fill:#666666;fill-opacity:1;stroke-width:0.264583"
         d="m 97.879174,52.970852 q 0.211666,0 0.370416,0.148167 0.169333,0.137583 0.169333,0.444498 0,0.296333 -0.169333,0.444499 -0.15875,0.148166 -0.370416,0.148166 -0.232832,0 -0.391582,-0.148166 -0.158749,-0.148166 -0.158749,-0.444499 0,-0.306915 0.158749,-0.444498 0.15875,-0.148167 0.391582,-0.148167 z m 0.455082,2.127244 v 5.672648 h -0.93133 v -5.672648 z" />
      <path
         id="path1040"
         style="fill:#666666;fill-opacity:1;stroke-width:0.264583"
         d="m 102.8639,54.992263 q 1.016,0 1.53458,0.497415 0.51858,0.486832 0.51858,1.587495 v 3.693571 h -0.92075 v -3.630071 q 0,-1.365246 -1.26999,-1.365246 -0.94192,0 -1.30175,0.529165 -0.35983,0.529165 -0.35983,1.523995 v 2.942157 h -0.93133 v -5.672648 h 0.75141 l 0.13759,0.772581 h 0.0529 q 0.27517,-0.444499 0.762,-0.656165 0.48683,-0.222249 1.02658,-0.222249 z" />
      <path
         id="path1042"
         style="fill:#666666;fill-opacity:1;stroke-width:0.264583"
         d="m 110.36744,59.204416 q 0,0.825497 -0.61383,1.248829 -0.61383,0.423332 -1.651,0.423332 -0.59266,0 -1.02658,-0.09525 -0.42333,-0.09525 -0.75141,-0.264583 v -0.846664 q 0.33867,0.169333 0.81491,0.317499 0.48684,0.137583 0.98425,0.137583 0.70908,0 1.02658,-0.222249 0.3175,-0.232833 0.3175,-0.613832 0,-0.211666 -0.11642,-0.380998 -0.11641,-0.169333 -0.42333,-0.338666 -0.29633,-0.169333 -0.85725,-0.380999 -0.55033,-0.211666 -0.94191,-0.423332 -0.39158,-0.211666 -0.60325,-0.507998 -0.21166,-0.296333 -0.21166,-0.761998 0,-0.719664 0.58208,-1.111246 0.59266,-0.391582 1.54516,-0.391582 0.51858,0 0.96308,0.105833 0.45508,0.09525 0.84666,0.275166 l -0.3175,0.74083 q -0.35983,-0.148166 -0.75141,-0.253999 -0.39158,-0.105833 -0.80433,-0.105833 -0.5715,0 -0.87841,0.1905 -0.29634,0.179916 -0.29634,0.497415 0,0.232832 0.13759,0.402165 0.13758,0.15875 0.45508,0.317499 0.32808,0.148166 0.86783,0.359832 0.53975,0.201083 0.92075,0.412749 0.38099,0.211666 0.58208,0.518582 0.20108,0.296332 0.20108,0.751414 z" />
      <path
         id="path1044"
         style="fill:#666666;fill-opacity:1;stroke-width:0.264583"
         d="m 112.664,52.727437 v 4.20157 q 0,0.169332 -0.0212,0.444498 -0.0106,0.275166 -0.0212,0.476249 h 0.0423 q 0.0635,-0.08467 0.1905,-0.243416 0.127,-0.15875 0.254,-0.317499 0.13758,-0.169333 0.23283,-0.275166 l 1.80974,-1.915577 h 1.09008 l -2.29657,2.423575 2.45532,3.249073 h -1.12183 l -1.96849,-2.645825 -0.64558,0.560915 v 2.08491 h -0.92075 v -8.043307 z" />
      <path
         id="path1046"
         style="fill:#666666;fill-opacity:1;stroke-width:0.264583"
         d="m 117.87097,52.970852 q 0.21166,0 0.37041,0.148167 0.16933,0.137583 0.16933,0.444498 0,0.296333 -0.16933,0.444499 -0.15875,0.148166 -0.37041,0.148166 -0.23284,0 -0.39159,-0.148166 -0.15875,-0.148166 -0.15875,-0.444499 0,-0.306915 0.15875,-0.444498 0.15875,-0.148167 0.39159,-0.148167 z m 0.45508,2.127244 v 5.672648 h -0.93133 v -5.672648 z" />
      <path
         id="path1048"
         style="fill:#666666;fill-opacity:1;stroke-width:0.264583"
         d="m 119.98762,60.199246 q 0,-0.391582 0.1905,-0.550331 0.1905,-0.15875 0.45508,-0.15875 0.27516,0 0.46566,0.15875 0.20109,0.158749 0.20109,0.550331 0,0.380999 -0.20109,0.550332 -0.1905,0.169333 -0.46566,0.169333 -0.26458,0 -0.45508,-0.169333 -0.1905,-0.169333 -0.1905,-0.550332 z" />
      <path
         id="path1050"
         style="fill:#666666;fill-opacity:1;stroke-width:0.264583"
         d="m 125.15226,54.992263 q 0.73025,0 1.24883,0.317499 0.52917,0.317499 0.80433,0.89958 0.28575,0.571498 0.28575,1.344079 v 0.560915 h -3.88407 q 0.0212,0.96308 0.48683,1.471079 0.47625,0.497415 1.32292,0.497415 0.53974,0 0.95249,-0.09525 0.42333,-0.105833 0.86783,-0.296332 v 0.814914 q -0.43391,0.190499 -0.85724,0.275166 -0.42334,0.09525 -1.00542,0.09525 -0.80433,0 -1.42874,-0.328082 -0.61383,-0.328082 -0.96308,-0.973664 -0.33867,-0.656164 -0.33867,-1.598078 0,-0.93133 0.30692,-1.598078 0.3175,-0.666748 0.87841,-1.02658 0.5715,-0.359832 1.32291,-0.359832 z m -0.0106,0.761997 q -0.66675,0 -1.05833,0.433916 -0.381,0.423332 -0.45508,1.185329 h 2.88924 q -0.0106,-0.719664 -0.33867,-1.164163 -0.32808,-0.455082 -1.03716,-0.455082 z" />
      <path
         id="path1052"
         style="fill:#666666;fill-opacity:1;stroke-width:0.264583"
         d="m 133.67181,55.098096 v 5.672648 h -0.762 l -0.13758,-0.751414 h -0.0423 q -0.27517,0.444499 -0.762,0.656165 -0.48683,0.201082 -1.03717,0.201082 -1.02658,0 -1.54516,-0.486831 -0.51858,-0.497416 -0.51858,-1.576912 v -3.714738 h 0.94191 v 3.651238 q 0,1.354662 1.25942,1.354662 0.94191,0 1.30174,-0.529165 0.37042,-0.529165 0.37042,-1.523995 v -2.95274 z" />
    </g>
  </g>
</svg>
