<?xml version="1.0" encoding="UTF-8" standalone="no"?>
<svg
   xmlns:dc="http://purl.org/dc/elements/1.1/"
   xmlns:cc="http://creativecommons.org/ns#"
   xmlns:rdf="http://www.w3.org/1999/02/22-rdf-syntax-ns#"
   xmlns:svg="http://www.w3.org/2000/svg"
   xmlns="http://www.w3.org/2000/svg"
   xmlns:sodipodi="http://sodipodi.sourceforge.net/DTD/sodipodi-0.dtd"
   xmlns:inkscape="http://www.inkscape.org/namespaces/inkscape"
   width="95px"
   viewBox="0 0 94.984848 9.3450537"
   version="1.1"
   id="svg8"
   sodipodi:docname="number.svg"
   inkscape:version="1.0 (4035a4fb49, 2020-05-01)">
  <defs
     id="defs2" />
  <sodipodi:namedview
     inkscape:showpageshadow="false"
     showborder="false"
     id="base"
     pagecolor="#ffffff"
     bordercolor="#666666"
     borderopacity="1.0"
     inkscape:pageopacity="0.0"
     inkscape:pageshadow="2"
     inkscape:zoom="11.2"
     inkscape:cx="19.168187"
     inkscape:cy="37.574746"
     inkscape:document-units="mm"
     inkscape:current-layer="layer1"
     inkscape:document-rotation="0"
     showgrid="false"
     inkscape:window-width="3840"
     inkscape:window-height="2096"
     inkscape:window-x="0"
     inkscape:window-y="0"
     inkscape:window-maximized="1" />
  <metadata
     id="metadata5">
    <rdf:RDF>
      <cc:Work
         rdf:about="">
        <dc:format>image/svg+xml</dc:format>
        <dc:type
           rdf:resource="http://purl.org/dc/dcmitype/StillImage" />
        <dc:title></dc:title>
      </cc:Work>
    </rdf:RDF>
  </metadata>
  <g
     inkscape:label="Layer 1"
     inkscape:groupmode="layer"
     id="layer1"
     transform="translate(-54.625283,-53.097852)">
    <g
       transform="translate(0,-0.08928571)"
       id="text12"
       style="font-style:normal;font-weight:normal;font-size:10.5833px;line-height:1.25;font-family:sans-serif;fill:#666666;fill-opacity:1;stroke:none;stroke-width:0.264583">
      <path
         d="m 59.579218,57.127567 q 0,1.824173 -0.645954,2.785351 -0.640785,0.961179 -1.896519,0.961179 -1.255733,0 -1.886183,-0.956011 -0.630451,-0.956011 -0.630451,-2.790519 0,-1.875848 0.60978,-2.811189 0.614948,-0.93534 1.93786,-0.93534 1.286739,0 1.896519,0.945676 0.614948,0.945675 0.614948,2.800853 z m -0.945676,0 q 0,-1.576126 -0.366902,-2.284091 -0.361733,-0.707964 -1.198889,-0.707964 -0.857826,0 -1.235063,0.697629 -0.372069,0.69763 -0.372069,2.294426 0,1.550288 0.377237,2.268589 0.382404,0.7183 1.209225,0.7183 0.821652,0 1.204057,-0.733803 0.382404,-0.733803 0.382404,-2.253086 z"
         style="font-style:normal;font-variant:normal;font-weight:normal;font-stretch:normal;font-family:Helvetica;-inkscape-font-specification:Helvetica;fill:#666666;fill-opacity:1;stroke-width:0.264583"
         id="path886" />
      <path
         d="m 65.465144,57.127567 q 0,1.824173 -0.645953,2.785351 -0.640786,0.961179 -1.896519,0.961179 -1.255733,0 -1.886184,-0.956011 -0.63045,-0.956011 -0.63045,-2.790519 0,-1.875848 0.60978,-2.811189 0.614947,-0.93534 1.93786,-0.93534 1.286739,0 1.896519,0.945676 0.614947,0.945675 0.614947,2.800853 z m -0.945675,0 q 0,-1.576126 -0.366902,-2.284091 -0.361734,-0.707964 -1.198889,-0.707964 -0.857826,0 -1.235063,0.697629 -0.372069,0.69763 -0.372069,2.294426 0,1.550288 0.377237,2.268589 0.382404,0.7183 1.209224,0.7183 0.821653,0 1.204057,-0.733803 0.382405,-0.733803 0.382405,-2.253086 z"
         style="font-style:normal;font-variant:normal;font-weight:normal;font-stretch:normal;font-family:Helvetica;-inkscape-font-specification:Helvetica;fill:#666666;fill-opacity:1;stroke-width:0.264583"
         id="path888" />
      <path
         d="m 70.431234,59.122271 v 1.648473 h -0.878497 v -1.648473 h -3.431304 v -0.723467 l 3.333119,-4.909246 h 0.976682 v 4.89891 h 1.02319 v 0.733803 z m -0.878497,-4.583685 q -0.01033,0.03101 -0.144694,0.273885 -0.134358,0.242878 -0.201537,0.341063 l -1.865513,2.749177 -0.279052,0.382405 -0.08268,0.103352 h 2.573478 z"
         style="font-style:normal;font-variant:normal;font-weight:normal;font-stretch:normal;font-family:Helvetica;-inkscape-font-specification:Helvetica;fill:#666666;fill-opacity:1;stroke-width:0.264583"
         id="path890" />
      <path
         d="m 77.190489,58.739867 q 0,1.007687 -0.640786,1.570959 -0.640786,0.563271 -1.839675,0.563271 -1.167884,0 -1.82934,-0.552936 -0.656289,-0.552936 -0.656289,-1.570959 0,-0.713132 0.408243,-1.198889 0.408242,-0.485757 1.04386,-0.58911 v -0.02067 q -0.594277,-0.139526 -0.940508,-0.604612 -0.341063,-0.465087 -0.341063,-1.09037 0,-0.831988 0.620115,-1.34875 0.625283,-0.516763 1.674311,-0.516763 1.074867,0 1.694982,0.506427 0.625283,0.506428 0.625283,1.369422 0,0.625282 -0.346231,1.090369 -0.346231,0.465086 -0.945676,0.583942 v 0.02067 q 0.69763,0.113688 1.085202,0.594277 0.387572,0.475422 0.387572,1.193722 z m -1.147213,-3.431304 q 0,-1.235063 -1.353919,-1.235063 -0.656288,0 -1.002519,0.310058 -0.341064,0.310057 -0.341064,0.925005 0,0.625283 0.351399,0.956011 0.356566,0.32556 1.00252,0.32556 0.656288,0 0.997352,-0.299722 0.346231,-0.30489 0.346231,-0.981849 z m 0.180866,3.343454 q 0,-0.676959 -0.403074,-1.018022 -0.403075,-0.346231 -1.131711,-0.346231 -0.707965,0 -1.105872,0.372069 -0.397907,0.366902 -0.397907,1.012855 0,1.503779 1.534785,1.503779 0.759641,0 1.13171,-0.361734 0.372069,-0.366901 0.372069,-1.162716 z"
         style="font-style:normal;font-variant:normal;font-weight:normal;font-stretch:normal;font-family:Helvetica;-inkscape-font-specification:Helvetica;fill:#666666;fill-opacity:1;stroke-width:0.264583"
         id="path892" />
      <path
         d="m 81.247076,58.021567 q 0,-1.493444 0.465087,-2.681998 0.470254,-1.188555 1.441768,-2.237583 h 0.899167 q -0.966346,1.074867 -1.421098,2.284091 -0.449583,1.209225 -0.449583,2.645825 0,1.431433 0.444416,2.63549 0.449583,1.204057 1.426265,2.294426 h -0.899167 q -0.976682,-1.054196 -1.441768,-2.24275 -0.465087,-1.193722 -0.465087,-2.676831 z"
         style="font-style:normal;font-variant:normal;font-weight:normal;font-stretch:normal;font-family:Helvetica;-inkscape-font-specification:Helvetica;fill:#666666;fill-opacity:1;stroke-width:0.264583"
         id="path894" />
      <path
         d="m 89.46877,54.244032 q -1.116208,1.705317 -1.576126,2.671663 -0.459919,0.966346 -0.692462,1.906854 -0.227376,0.940508 -0.227376,1.948195 h -0.971514 q 0,-1.395259 0.58911,-2.935212 0.594277,-1.54512 1.979201,-3.555327 h -3.911894 v -0.790647 h 4.811061 z"
         style="font-style:normal;font-variant:normal;font-weight:normal;font-stretch:normal;font-family:Helvetica;-inkscape-font-specification:Helvetica;fill:#666666;fill-opacity:1;stroke-width:0.264583"
         id="path896" />
      <path
         d="m 94.553713,59.122271 v 1.648473 h -0.878497 v -1.648473 h -3.431304 v -0.723467 l 3.33312,-4.909246 h 0.976681 v 4.89891 h 1.02319 v 0.733803 z m -0.878497,-4.583685 q -0.01034,0.03101 -0.144693,0.273885 -0.134358,0.242878 -0.201538,0.341063 l -1.865513,2.749177 -0.279052,0.382405 -0.08268,0.103352 h 2.573478 z"
         style="font-style:normal;font-variant:normal;font-weight:normal;font-stretch:normal;font-family:Helvetica;-inkscape-font-specification:Helvetica;fill:#666666;fill-opacity:1;stroke-width:0.264583"
         id="path898" />
      <path
         d="m 98.754996,58.042237 q 0,1.493445 -0.470254,2.681999 -0.465087,1.188554 -1.436601,2.237582 h -0.899167 q 0.971514,-1.085202 1.421098,-2.284091 0.449583,-1.204057 0.449583,-2.645825 0,-1.441768 -0.454751,-2.645825 -0.449583,-1.204057 -1.41593,-2.284091 h 0.899167 q 0.976682,1.054196 1.441768,2.247918 0.465087,1.188554 0.465087,2.671663 z"
         style="font-style:normal;font-variant:normal;font-weight:normal;font-stretch:normal;font-family:Helvetica;-inkscape-font-specification:Helvetica;fill:#666666;fill-opacity:1;stroke-width:0.264583"
         id="path900" />
      <path
         d="m 107.77767,58.739867 q 0,1.007687 -0.64078,1.570959 -0.64079,0.563271 -1.83968,0.563271 -1.16788,0 -1.82934,-0.552936 -0.65629,-0.552936 -0.65629,-1.570959 0,-0.713132 0.40825,-1.198889 0.40824,-0.485757 1.04386,-0.58911 v -0.02067 q -0.59428,-0.139526 -0.94051,-0.604612 -0.34106,-0.465087 -0.34106,-1.09037 0,-0.831988 0.62011,-1.34875 0.62528,-0.516763 1.67431,-0.516763 1.07487,0 1.69498,0.506427 0.62529,0.506428 0.62529,1.369422 0,0.625282 -0.34623,1.090369 -0.34624,0.465086 -0.94568,0.583942 v 0.02067 q 0.69763,0.113688 1.0852,0.594277 0.38757,0.475422 0.38757,1.193722 z m -1.14721,-3.431304 q 0,-1.235063 -1.35392,-1.235063 -0.65629,0 -1.00252,0.310058 -0.34106,0.310057 -0.34106,0.925005 0,0.625283 0.3514,0.956011 0.35656,0.32556 1.00252,0.32556 0.65629,0 0.99735,-0.299722 0.34623,-0.30489 0.34623,-0.981849 z m 0.18087,3.343454 q 0,-0.676959 -0.40308,-1.018022 -0.40307,-0.346231 -1.13171,-0.346231 -0.70796,0 -1.10587,0.372069 -0.39791,0.366902 -0.39791,1.012855 0,1.503779 1.53479,1.503779 0.75964,0 1.13171,-0.361734 0.37207,-0.366901 0.37207,-1.162716 z"
         style="font-style:normal;font-variant:normal;font-weight:normal;font-stretch:normal;font-family:Helvetica;-inkscape-font-specification:Helvetica;fill:#666666;fill-opacity:1;stroke-width:0.264583"
         id="path902" />
      <path
         d="m 109.04374,60.770744 v -0.790647 h 1.85518 V 54.37839 l -1.64331,1.173051 v -0.878496 l 1.72082,-1.183387 h 0.85783 v 6.490539 h 1.7725 v 0.790647 z"
         style="font-style:normal;font-variant:normal;font-weight:normal;font-stretch:normal;font-family:Helvetica;-inkscape-font-specification:Helvetica;fill:#666666;fill-opacity:1;stroke-width:0.264583"
         id="path904" />
      <path
         d="m 119.54436,58.760538 q 0,1.007687 -0.64079,1.560623 -0.64078,0.552936 -1.82934,0.552936 -1.10587,0 -1.76733,-0.496092 -0.65629,-0.50126 -0.78031,-1.477942 l 0.96118,-0.08785 q 0.18603,1.291906 1.58646,1.291906 0.7028,0 1.10071,-0.346231 0.40307,-0.346231 0.40307,-1.028357 0,-0.594277 -0.45992,-0.925005 -0.45475,-0.335896 -1.31774,-0.335896 h -0.5271 v -0.80615 h 0.50643 q 0.76481,0 1.18338,-0.330728 0.42375,-0.335896 0.42375,-0.925005 0,-0.583942 -0.34623,-0.919838 -0.34107,-0.341063 -1.01803,-0.341063 -0.61494,0 -0.99735,0.315225 -0.37723,0.315225 -0.43925,0.888832 l -0.93534,-0.07235 q 0.10336,-0.893999 0.73897,-1.395259 0.64079,-0.50126 1.64331,-0.50126 1.09554,0 1.70015,0.511595 0.60978,0.506428 0.60978,1.41593 0,0.697629 -0.39274,1.136878 -0.38757,0.43408 -1.13171,0.589109 v 0.02067 q 0.81648,0.08785 1.27124,0.547768 0.45475,0.459919 0.45475,1.157549 z"
         style="font-style:normal;font-variant:normal;font-weight:normal;font-stretch:normal;font-family:Helvetica;-inkscape-font-specification:Helvetica;fill:#666666;fill-opacity:1;stroke-width:0.264583"
         id="path906" />
      <path
         d="m 128.33449,56.982874 q 0,1.875848 -0.68729,2.883536 -0.68213,1.007687 -1.9482,1.007687 -0.85266,0 -1.36942,-0.356566 -0.51159,-0.361734 -0.7338,-1.162716 l 0.88883,-0.139526 q 0.27905,0.909502 1.2299,0.909502 0.80098,0 1.24023,-0.744138 0.43924,-0.744139 0.45991,-2.123895 -0.2067,0.465087 -0.70796,0.749306 -0.50126,0.279052 -1.1007,0.279052 -0.98185,0 -1.57096,-0.671792 -0.58911,-0.671791 -0.58911,-1.782831 0,-1.142045 0.64078,-1.793166 0.64079,-0.656289 1.78283,-0.656289 1.2144,0 1.83968,0.899167 0.62528,0.899167 0.62528,2.702669 z m -1.01285,-0.899167 q 0,-0.878497 -0.40308,-1.410762 -0.40307,-0.537433 -1.08003,-0.537433 -0.67179,0 -1.05936,0.459918 -0.38758,0.454751 -0.38758,1.235063 0,0.795815 0.38758,1.260901 0.38757,0.459919 1.04902,0.459919 0.40308,0 0.74931,-0.180867 0.34623,-0.186035 0.5426,-0.52193 0.20154,-0.335896 0.20154,-0.764809 z"
         style="font-style:normal;font-variant:normal;font-weight:normal;font-stretch:normal;font-family:Helvetica;-inkscape-font-specification:Helvetica;fill:#666666;fill-opacity:1;stroke-width:0.264583"
         id="path908" />
      <path
         d="m 129.36802,60.770744 v -0.656288 q 0.26355,-0.604613 0.64078,-1.064531 0.38241,-0.465087 0.80098,-0.837156 0.41858,-0.377237 0.82682,-0.69763 0.41341,-0.320392 0.74414,-0.640785 0.33073,-0.320393 0.53227,-0.671792 0.2067,-0.351398 0.2067,-0.795814 0,-0.599445 -0.3514,-0.930173 -0.35139,-0.330728 -0.97668,-0.330728 -0.59427,0 -0.98185,0.32556 -0.3824,0.320393 -0.44958,0.904335 l -0.95084,-0.08785 q 0.10335,-0.873329 0.73897,-1.390091 0.64078,-0.516763 1.6433,-0.516763 1.10071,0 1.68982,0.52193 0.59427,0.516763 0.59427,1.472774 0,0.423745 -0.19637,0.842323 -0.1912,0.418578 -0.5736,0.837156 -0.38241,0.418577 -1.46244,1.297074 -0.59428,0.485757 -0.94568,0.878497 -0.35139,0.387572 -0.50642,0.749305 h 3.7982 v 0.790647 z"
         style="font-style:normal;font-variant:normal;font-weight:normal;font-stretch:normal;font-family:Helvetica;-inkscape-font-specification:Helvetica;fill:#666666;fill-opacity:1;stroke-width:0.264583"
         id="path910" />
      <path
         d="m 143.0829,58.388468 q 0,1.152381 -0.62528,1.819005 -0.62529,0.666624 -1.72599,0.666624 -1.2299,0 -1.88102,-0.91467 -0.65112,-0.91467 -0.65112,-2.661328 0,-1.891351 0.67696,-2.904206 0.67696,-1.012855 1.92753,-1.012855 1.64847,0 2.07738,1.483109 l -0.88883,0.160196 q -0.27388,-0.888831 -1.19889,-0.888831 -0.79581,0 -1.23506,0.744138 -0.43408,0.73897 -0.43408,2.144565 0.25321,-0.470254 0.71313,-0.713133 0.45992,-0.248046 1.0542,-0.248046 1.00768,0 1.59679,0.630451 0.59428,0.63045 0.59428,1.694981 z m -0.94568,0.04134 q 0,-0.790647 -0.38757,-1.21956 -0.38757,-0.428913 -1.08003,-0.428913 -0.65112,0 -1.0542,0.382405 -0.3979,0.377237 -0.3979,1.04386 0,0.842324 0.41341,1.379757 0.41857,0.537433 1.06969,0.537433 0.6718,0 1.0542,-0.449584 0.3824,-0.454751 0.3824,-1.245398 z"
         style="font-style:normal;font-variant:normal;font-weight:normal;font-stretch:normal;font-family:Helvetica;-inkscape-font-specification:Helvetica;fill:#666666;fill-opacity:1;stroke-width:0.264583"
         id="path912" />
      <path
         d="m 144.08025,60.770744 v -0.656288 q 0.26355,-0.604613 0.64079,-1.064531 0.3824,-0.465087 0.80098,-0.837156 0.41858,-0.377237 0.82682,-0.69763 0.41341,-0.320392 0.74414,-0.640785 0.33073,-0.320393 0.53226,-0.671792 0.20671,-0.351398 0.20671,-0.795814 0,-0.599445 -0.3514,-0.930173 -0.3514,-0.330728 -0.97668,-0.330728 -0.59428,0 -0.98185,0.32556 -0.38241,0.320393 -0.44959,0.904335 l -0.95084,-0.08785 q 0.10335,-0.873329 0.73897,-1.390091 0.64079,-0.516763 1.64331,-0.516763 1.1007,0 1.68981,0.52193 0.59428,0.516763 0.59428,1.472774 0,0.423745 -0.19637,0.842323 -0.1912,0.418578 -0.57361,0.837156 -0.3824,0.418577 -1.46244,1.297074 -0.59427,0.485757 -0.94567,0.878497 -0.3514,0.387572 -0.50643,0.749305 h 3.79821 v 0.790647 z"
         style="font-style:normal;font-variant:normal;font-weight:normal;font-stretch:normal;font-family:Helvetica;-inkscape-font-specification:Helvetica;fill:#666666;fill-opacity:1;stroke-width:0.264583"
         id="path914" />
    </g>
  </g>
</svg>
